# xmcd
#
# Track frame offsets:
#	150
#	22637
#	42866
#	63765
#	79710
#	98989
#	118719
#	138281
#	156510
#	180264
#
# Disc length: 2664 seconds
#
# Revision: 4
# Processed by: cddbd v1.5.2PL0 Copyright (c) Steve Scherf et al.
# Submitted via: audiograbber 1.83.01
#
DISCID=700a660a
DTITLE=LeVert - Just Coolin' And Other Hits
DYEAR=1900
DGENRE=R&B
TTITLE0=Just Coolin'
TTITLE1=Sweet Sensation
TTITLE2=My Forever Love
TTITLE3=Clap Your Hands
TTITLE4=Good Stuff
TTITLE5=Let's Get Romantic
TTITLE6=Start Me Up Again
TTITLE7=Give A Little Love
TTITLE8=Gotta Get The Money
TTITLE9=Cassanova
EXTD=
EXTT0=
EXTT1=
EXTT2=
EXTT3=
EXTT4=
EXTT5=
EXTT6=
EXTT7=
EXTT8=
EXTT9=
PLAYORDER=
